<svg width="315" height="225" viewBox="0 0 315 225" fill="none" xmlns="http://www.w3.org/2000/svg">
<g clip-path="url(#clip0_1_877)">
<path d="M0 10.2231C0 4.57676 4.57676 0 10.2231 0H304.777C310.423 0 315 4.57676 315 10.2231V214.686C315 220.332 310.423 224.909 304.777 224.909H10.2231C4.57676 224.909 0 220.332 0 214.686V10.2231Z" fill="white"/>
<mask id="mask0_1_877" style="mask-type:luminance" maskUnits="userSpaceOnUse" x="0" y="0" width="315" height="225">
<path d="M0 10.2231C0 4.57676 4.57676 0 10.2231 0H304.777C310.423 0 315 4.57676 315 10.2231V214.686C315 220.332 310.423 224.909 304.777 224.909H10.2231C4.57676 224.909 0 220.332 0 214.686V10.2231Z" fill="#F8F9FC"/>
</mask>
<g mask="url(#mask0_1_877)">
<path d="M99.9949 109.899C99.9949 355.855 -99.3931 555.243 -345.35 555.243C-591.307 555.243 -790.695 355.855 -790.695 109.899C-790.695 -136.058 -591.307 -335.446 -345.35 -335.446C-99.3931 -335.446 99.9949 -136.058 99.9949 109.899Z" fill="#EBF5FF"/>
</g>
<path d="M119.137 18.1C118.982 16.8119 118.007 16.0714 116.716 16.0714C115.243 16.0714 114.119 17.1116 114.119 18.9358C114.119 20.7549 115.224 21.8002 116.716 21.8002C118.146 21.8002 119.009 20.8501 119.137 19.8239L117.944 19.8182C117.833 20.4143 117.365 20.7574 116.735 20.7574C115.889 20.7574 115.314 20.1287 115.314 18.9364C115.314 17.7761 115.88 17.1141 116.744 17.1141C117.389 17.1141 117.855 17.4873 117.944 18.1H119.137ZM125.362 18.9358C125.362 17.1116 124.229 16.0714 122.751 16.0714C121.264 16.0714 120.14 17.1116 120.14 18.9358C120.14 20.7523 121.264 21.8002 122.751 21.8002C124.229 21.8002 125.362 20.76 125.362 18.9358ZM124.167 18.9358C124.167 20.1178 123.606 20.7574 122.751 20.7574C121.893 20.7574 121.335 20.1178 121.335 18.9364C121.335 17.7544 121.893 17.1148 122.751 17.1148C123.606 17.1148 124.167 17.7537 124.167 18.9358ZM131.155 16.1481H129.982V19.6546H129.933L127.526 16.1481H126.491V21.7241H127.67V18.2144H127.711L130.137 21.7241H131.155V16.1481ZM132.173 17.1199H133.879V21.7241H135.045V17.1199H136.752V16.1481H132.173V17.1199ZM138.035 21.7241L138.448 20.4526H140.461L140.874 21.7241H142.138L140.215 16.1481H138.696L136.771 21.7241H138.035ZM138.748 19.5326L139.434 17.4221H139.477L140.163 19.5326H138.748ZM147.722 18.1C147.567 16.8126 146.593 16.0714 145.302 16.0714C143.828 16.0714 142.704 17.1116 142.704 18.9358C142.704 20.7549 143.81 21.8002 145.302 21.8002C146.731 21.8002 147.594 20.8501 147.722 19.8239L146.53 19.8182C146.418 20.4143 145.95 20.7574 145.321 20.7574C144.474 20.7574 143.899 20.1287 143.899 18.9364C143.899 17.7761 144.466 17.1148 145.329 17.1148C145.974 17.1148 146.44 17.4873 146.53 18.1H147.722ZM148.611 17.1199H150.318V21.7241H151.484V17.1199H153.19V16.1481H148.611V17.1199ZM156.23 21.7241H157.409V19.7472H158.27L159.326 21.7241H160.628L159.444 19.5568C160.078 19.2846 160.429 18.732 160.429 17.9697C160.429 16.8611 159.697 16.1481 158.43 16.1481H156.23V21.7241ZM157.409 18.7997V17.1116H158.205C158.885 17.1116 159.215 17.4138 159.215 17.9697C159.215 18.5224 158.885 18.8003 158.21 18.8003L157.409 18.7997ZM161.518 21.7241H165.286V20.7523H162.697V19.4207H165.082V18.4489H162.697V17.1199H165.275V16.1481H161.518V21.7241ZM171.593 18.9358C171.593 17.1116 170.46 16.0714 168.981 16.0714C167.494 16.0714 166.37 17.1116 166.37 18.9358C166.37 20.7523 167.494 21.8002 168.981 21.8002C169.33 21.8002 169.659 21.7427 169.959 21.6289L170.408 22.1816H171.508L170.71 21.1798C171.255 20.6922 171.593 19.93 171.593 18.9358ZM168.573 19.7856L169.286 20.7274C169.191 20.7466 169.087 20.7574 168.981 20.7574C168.124 20.7574 167.565 20.1178 167.565 18.9364C167.565 17.7544 168.124 17.1148 168.981 17.1148C169.836 17.1148 170.397 17.7537 170.397 18.9358C170.397 19.5428 170.248 20.0092 169.989 20.3159L169.575 19.7856H168.573ZM176.166 16.1481V19.6687C176.166 20.3057 175.719 20.7657 175.033 20.7657C174.35 20.7657 173.9 20.3057 173.9 19.6687V16.1481H172.722V19.769C172.722 20.9894 173.642 21.8034 175.033 21.8034C176.419 21.8034 177.344 20.9887 177.344 19.769V16.1481H176.166ZM178.57 21.7241H182.338V20.7523H179.749V19.4207H182.135V18.4489H179.749V17.1199H182.327V16.1481H178.57V21.7241ZM186.546 17.7518H187.675C187.659 16.7576 186.842 16.0714 185.601 16.0714C184.378 16.0714 183.482 16.7468 183.488 17.7595C183.485 18.5818 184.065 19.0533 185.007 19.2789L185.614 19.4316C186.221 19.5786 186.559 19.753 186.562 20.1281C186.559 20.537 186.173 20.8149 185.573 20.8149C184.961 20.8149 184.52 20.5319 184.481 19.9734H183.341C183.371 21.1798 184.234 21.8034 185.587 21.8034C186.948 21.8034 187.749 21.1523 187.752 20.1312C187.749 19.2029 187.049 18.7102 186.08 18.4924L185.579 18.3722C185.094 18.2611 184.688 18.0809 184.697 17.6809C184.697 17.3212 185.016 17.0573 185.593 17.0573C186.156 17.0573 186.502 17.3129 186.546 17.7518ZM188.588 17.1199H190.295V21.7241H191.461V17.1199H193.168V16.1481H188.588V17.1199Z" fill="#394856"/>
<path d="M113.732 33.2252H298.387V33.8641H113.732V33.2252Z" fill="#E7EBEF" fill-opacity="0.5"/>
<path d="M28.4286 208.157H29.5582C29.5423 207.163 28.7251 206.477 27.4836 206.477C26.2613 206.477 25.3655 207.152 25.3706 208.165C25.368 208.987 25.9482 209.459 26.89 209.685L27.497 209.837C28.104 209.984 28.4426 210.159 28.4452 210.534C28.442 210.943 28.0554 211.221 27.4567 211.221C26.8434 211.221 26.4025 210.938 26.3641 210.379H25.2236C25.2537 211.585 26.1169 212.209 27.4702 212.209C28.8311 212.209 29.6317 211.558 29.6349 210.537C29.6317 209.609 28.9321 209.116 27.9628 208.898L27.4619 208.778C26.9775 208.667 26.5718 208.487 26.5801 208.087C26.5801 207.727 26.8983 207.463 27.4753 207.463C28.0388 207.463 28.3851 207.719 28.4286 208.157ZM30.6834 212.13H34.4519V211.158H31.8623V209.826H34.2475V208.855H31.8623V207.526H34.4404V206.554H30.6834V212.13ZM40.5538 208.506C40.3986 207.218 39.4236 206.477 38.1329 206.477C36.6601 206.477 35.5356 207.517 35.5356 209.341C35.5356 211.161 36.6409 212.206 38.1329 212.206C39.5628 212.206 40.4261 211.256 40.5538 210.23L39.3609 210.224C39.2498 210.82 38.7814 211.163 38.152 211.163C37.3054 211.163 36.731 210.534 36.731 209.341C36.731 208.182 37.2971 207.52 38.1604 207.52C38.8057 207.52 39.2715 207.893 39.3616 208.506H40.5538ZM45.0993 206.554V210.074C45.0993 210.711 44.652 211.171 43.9664 211.171C43.2828 211.171 42.8336 210.711 42.8336 210.074V206.554H41.6547V210.175C41.6547 211.394 42.5748 212.209 43.9664 212.209C45.3523 212.209 46.2782 211.394 46.2782 210.175V206.554H45.0993ZM47.5037 212.13H48.6825V210.153H49.5432L50.5993 212.13H51.9009L50.7163 209.963C51.3507 209.69 51.7022 209.138 51.7022 208.375C51.7022 207.267 50.9693 206.554 49.7035 206.554H47.5037V212.13ZM48.6825 209.205V207.517H49.4774C50.1585 207.517 50.4875 207.819 50.4875 208.375C50.4875 208.928 50.1585 209.205 49.4831 209.205H48.6825ZM52.7909 212.13H56.5588V211.158H53.9698V209.826H56.355V208.855H53.9698V207.526H56.5479V206.554H52.7909V212.13Z" fill="#24BC94"/>
<path opacity="0.24" d="M79.2292 68.3671H17.2515C16.1929 68.3671 15.3347 69.2253 15.3347 70.284V72.8398C15.3347 73.8984 16.1929 74.7566 17.2515 74.7566H79.2292C80.2878 74.7566 81.146 73.8984 81.146 72.8398V70.284C81.146 69.2253 80.2878 68.3671 79.2292 68.3671Z" fill="#1371C3"/>
<path opacity="0.08" d="M57.5051 83.0629H17.2515C16.1929 83.0629 15.3347 83.9211 15.3347 84.9797V87.5355C15.3347 88.5941 16.1929 89.4523 17.2515 89.4523H57.5051C58.5637 89.4523 59.4219 88.5941 59.4219 87.5355V84.9797C59.4219 83.9211 58.5637 83.0629 57.5051 83.0629Z" fill="#1371C3"/>
<path opacity="0.08" d="M69.645 97.1197H17.2515C16.1929 97.1197 15.3347 97.9779 15.3347 99.0365V101.592C15.3347 102.651 16.1929 103.509 17.2515 103.509H69.645C70.7037 103.509 71.5619 102.651 71.5619 101.592V99.0365C71.5619 97.9779 70.7037 97.1197 69.645 97.1197Z" fill="#1371C3"/>
<g filter="url(#filter0_ddddd_1_877)">
<path d="M139.29 55.5659H118.844C116.021 55.5659 113.732 57.8544 113.732 60.6774V81.1237C113.732 83.9467 116.021 86.2352 118.844 86.2352H139.29C142.113 86.2352 144.402 83.9467 144.402 81.1237V60.6774C144.402 57.8544 142.113 55.5659 139.29 55.5659Z" fill="white"/>
</g>
<path fill-rule="evenodd" clip-rule="evenodd" d="M128.23 69.0323C127.123 67.7327 126.374 66.1404 126.499 64.3565C126.86 59.2155 134.016 60.3465 135.408 62.9412C136.8 65.536 136.635 72.1171 134.836 72.581C134.118 72.7663 132.59 72.3126 131.034 71.3753L132.011 78.2829H126.245L128.23 69.0323Z" fill="#EED3BA"/>
<path fill-rule="evenodd" clip-rule="evenodd" d="M135.952 64.106C135.895 63.7699 135.756 63.3961 135.643 63.0779C135.498 62.6677 135.278 62.2984 135.037 61.9496C134.585 61.2975 134.045 60.7115 133.432 60.2084C132.331 59.3101 130.929 58.7919 129.55 58.9606C128.842 59.0457 128.169 59.3193 127.603 59.7529C127.084 60.1522 126.584 60.74 125.911 60.7816C125.179 60.8282 124.507 60.1816 123.92 59.7829C123.258 59.3331 122.554 59.0053 121.78 58.8775C120.484 58.6641 119.267 59.1018 118.373 60.1656C117.423 61.2972 116.731 62.9572 117.356 64.4562C117.472 64.7354 117.621 64.9699 117.836 65.1647C118.032 65.3436 118.332 65.5334 118.412 65.819C118.496 66.1219 118.243 66.5136 118.145 66.787C118.005 67.1793 117.89 67.5908 117.931 68.017C117.998 68.7173 118.438 69.3856 118.903 69.8457C119.375 70.3134 119.957 70.5824 120.579 70.7057C120.993 70.7887 121.418 70.8341 121.839 70.8028C122.048 70.7875 122.233 70.7293 122.436 70.6833C122.633 70.6386 122.743 70.691 122.911 70.799C123.688 71.3012 124.524 71.496 125.421 71.4213C126.179 71.358 127.052 71.1747 127.67 70.6552C128.356 70.0789 128.343 69.284 128.181 68.4349C128.353 68.5192 128.825 68.5722 128.543 68.2342C128.431 68.1001 128.219 68.0457 128.075 67.9672C127.9 67.8752 127.742 67.7535 127.608 67.6074C127.083 67.0036 127.613 65.7743 128.273 65.5724C129.253 65.2714 129.473 66.6573 130.172 67.0164C130.575 67.2221 130.995 66.9404 131.297 66.6528C131.701 66.2676 131.976 65.7564 132.214 65.2369C132.409 64.8088 132.591 64.375 132.791 63.9495C132.884 63.7501 133.207 63.1885 133.044 62.9636C133.747 62.823 134.529 63.115 135.133 63.4977C135.383 63.6562 135.574 63.83 135.707 64.1092C135.736 64.1693 135.798 64.3469 135.876 64.3546C136.021 64.368 135.967 64.1904 135.952 64.106Z" fill="#394856"/>
<path d="M141.017 86.2352C140.248 86.2352 135.017 81.5569 134.157 78.2829L133.925 86.2352H141.017Z" fill="#CFD7DE"/>
<path d="M126.463 77.4823C124.879 78.0063 120.572 83.7945 121.511 86.2352H137.98C134.479 82.5498 134.047 79.6707 134.162 78.2887L126.463 77.4823Z" fill="#E7EBEF"/>
<path d="M130.151 67.1602C130.151 68.3039 129.298 69.231 128.245 69.231C127.192 69.231 126.339 68.3039 126.339 67.1602C126.339 66.0165 127.192 65.0894 128.245 65.0894C129.298 65.0894 130.151 66.0165 130.151 67.1602Z" fill="#1F9073"/>
<path d="M129.738 67.1602C129.738 68.3039 128.885 69.231 127.833 69.231C126.78 69.231 125.927 68.3039 125.927 67.1602C125.927 66.0165 126.78 65.0894 127.833 65.0894C128.885 65.0894 129.738 66.0165 129.738 67.1602Z" fill="#24BC94"/>
<path fill-rule="evenodd" clip-rule="evenodd" d="M133.479 60.2474C133.303 60.1196 133.064 60.0621 132.81 60.0775C131.351 60.1663 130.204 61.2033 129.401 62.5821C128.601 63.9571 128.19 65.5948 128.174 66.7161L127.482 66.7059C127.501 65.4606 127.946 63.7073 128.804 62.2345C129.66 60.765 130.976 59.4967 132.768 59.3874C133.143 59.365 133.55 59.4449 133.885 59.6883C134.03 59.7944 134.203 59.9478 134.294 60.1471C134.341 60.2532 134.37 60.3816 134.348 60.5215C134.324 60.6591 134.259 60.786 134.161 60.8851L133.666 60.4123L133.665 60.4129C133.664 60.4208 133.664 60.4288 133.666 60.4366L133.664 60.4327C133.65 60.4053 133.631 60.3803 133.609 60.3586C133.569 60.3177 133.526 60.2805 133.479 60.2474ZM132.347 70.3025L128.807 68.2713L129.147 67.7122L132.688 69.7441L132.347 70.3025Z" fill="#24BC94"/>
<path d="M133.084 70.0904C133.084 70.217 133.034 70.3384 132.944 70.4279C132.855 70.5174 132.733 70.5677 132.607 70.5677C132.48 70.5677 132.359 70.5174 132.269 70.4279C132.18 70.3384 132.129 70.217 132.129 70.0904C132.129 69.9638 132.18 69.8424 132.269 69.7529C132.359 69.6634 132.48 69.6131 132.607 69.6131C132.733 69.6131 132.855 69.6634 132.944 69.7529C133.034 69.8424 133.084 69.9638 133.084 70.0904Z" fill="#1F9073"/>
<path d="M143.124 60.7471C144.888 60.7471 146.318 59.3167 146.318 57.5523C146.318 55.7879 144.888 54.3576 143.124 54.3576C141.359 54.3576 139.929 55.7879 139.929 57.5523C139.929 59.3167 141.359 60.7471 143.124 60.7471Z" fill="#24BC94"/>
<path d="M156.807 69.0061C158.789 69.0061 159.936 67.7767 159.936 65.7436C159.936 63.7201 158.789 62.5003 156.873 62.5003H154.701V69.0061H156.807ZM155.682 68.1486V63.3584H156.813C158.236 63.3584 158.97 64.2095 158.97 65.7436C158.97 67.2841 158.236 68.1486 156.752 68.1486H155.682ZM162.5 69.1141C163.307 69.1141 163.761 68.7045 163.942 68.339H163.98V69.0061H164.908V65.766C164.908 64.3463 163.79 64.0632 163.015 64.0632C162.131 64.0632 161.318 64.4191 161.001 65.3085L161.893 65.5117C162.033 65.1654 162.389 64.8319 163.027 64.8319C163.64 64.8319 163.955 65.1526 163.955 65.7059V65.7277C163.955 66.074 163.599 66.0676 162.722 66.1692C161.798 66.2771 160.851 66.5187 160.851 67.6272C160.851 68.5869 161.572 69.1141 162.5 69.1141ZM162.706 68.3518C162.169 68.3518 161.782 68.1103 161.782 67.64C161.782 67.1321 162.233 66.9506 162.783 66.8778C163.091 66.8362 163.821 66.7538 163.958 66.6171V67.2464C163.958 67.8247 163.497 68.3518 162.706 68.3518ZM168.45 64.1271H167.45V62.9578H166.5V64.1271H165.785V64.8894H166.5V67.7704C166.497 68.6566 167.174 69.0853 167.923 69.0693C168.225 69.0661 168.428 69.0093 168.539 68.9677L168.368 68.1831C168.304 68.1959 168.186 68.2247 168.034 68.2247C167.726 68.2247 167.45 68.1231 167.45 67.5736V64.8894H168.45V64.1271ZM170.921 69.1141C171.728 69.1141 172.182 68.7045 172.363 68.339H172.401V69.0061H173.329V65.766C173.329 64.3463 172.21 64.0632 171.435 64.0632C170.552 64.0632 169.739 64.4191 169.421 65.3085L170.314 65.5117C170.454 65.1654 170.81 64.8319 171.448 64.8319C172.062 64.8319 172.376 65.1526 172.376 65.7059V65.7277C172.376 66.074 172.02 66.0676 171.143 66.1692C170.219 66.2771 169.273 66.5187 169.273 67.6272C169.273 68.5869 169.993 69.1141 170.921 69.1141ZM171.127 68.3518C170.591 68.3518 170.203 68.1103 170.203 67.64C170.203 67.1321 170.654 66.9506 171.203 66.8778C171.512 66.8362 172.242 66.7538 172.379 66.6171V67.2464C172.379 67.8247 171.918 68.3518 171.127 68.3518ZM177.038 69.0061H178.019V66.7187H179.353C180.862 66.7187 181.609 65.8075 181.609 64.6063C181.609 63.4089 180.868 62.5003 179.356 62.5003H177.038V69.0061ZM178.019 65.8867V63.3425H179.252C180.223 63.3425 180.621 63.8696 180.621 64.6063C180.621 65.3436 180.223 65.8867 179.264 65.8867H178.019ZM182.683 69.0061H183.633V66.0267C183.633 65.3877 184.125 64.9271 184.798 64.9271C184.996 64.9271 185.218 64.9622 185.294 64.9846V64.076C185.16 64.0614 185.026 64.054 184.891 64.0536C184.319 64.0536 183.83 64.3776 183.652 64.9021H183.601V64.1271H182.683V69.0061ZM187.997 69.1045C189.372 69.1045 190.271 68.0975 190.271 66.589C190.271 65.0702 189.372 64.0632 187.997 64.0632C186.621 64.0632 185.722 65.0702 185.722 66.589C185.722 68.0975 186.621 69.1045 187.997 69.1045ZM188 68.3071C187.101 68.3071 186.681 67.5224 186.681 66.5858C186.681 65.6516 187.101 64.8574 188 64.8574C188.893 64.8574 189.312 65.6516 189.312 66.5858C189.312 67.5224 188.893 68.3071 188 68.3071ZM195.331 64.1271H194.311L193.078 67.8815H193.027L191.792 64.1271H190.772L192.545 69.0061H193.561L195.331 64.1271ZM196.223 69.0061H197.173V64.1271H196.223V69.0061ZM196.703 63.3738C197.03 63.3738 197.303 63.1201 197.303 62.8083C197.303 62.4971 197.03 62.2397 196.703 62.2397C196.372 62.2397 196.103 62.4971 196.103 62.8083C196.103 63.1201 196.372 63.3738 196.703 63.3738ZM200.277 69.1013C201.167 69.1013 201.516 68.5582 201.688 68.247H201.767V69.0061H202.695V62.5003H201.745V64.9181H201.688C201.516 64.6159 201.192 64.0632 200.284 64.0632C199.105 64.0632 198.238 64.9941 198.238 66.5762C198.238 68.155 199.092 69.1013 200.277 69.1013ZM200.487 68.2911C199.638 68.2911 199.197 67.5448 199.197 66.5666C199.197 65.5973 199.63 64.8702 200.487 64.8702C201.316 64.8702 201.76 65.5468 201.76 66.5666C201.76 67.5927 201.307 68.2911 200.487 68.2911ZM206.153 69.1045C207.217 69.1045 207.97 68.5805 208.186 67.7863L207.287 67.624C207.115 68.0847 206.703 68.3199 206.163 68.3199C205.349 68.3199 204.803 67.7927 204.777 66.8522H208.246V66.5155C208.246 64.7526 207.192 64.0632 206.087 64.0632C204.727 64.0632 203.831 65.0989 203.831 66.5985C203.831 68.1135 204.714 69.1045 206.153 69.1045ZM204.781 66.1411C204.819 65.4484 205.321 64.8478 206.092 64.8478C206.83 64.8478 207.313 65.3941 207.316 66.1411H204.781ZM209.301 69.0061H210.25V66.0267C210.25 65.3877 210.743 64.9271 211.416 64.9271C211.613 64.9271 211.835 64.9622 211.911 64.9846V64.076C211.777 64.0614 211.643 64.054 211.508 64.0536C210.936 64.0536 210.447 64.3776 210.269 64.9021H210.218V64.1271H209.301V69.0061Z" fill="#394856"/>
<path d="M228.742 75.3955H155.903C154.844 75.3955 153.986 76.2537 153.986 77.3124V79.8682C153.986 80.9268 154.844 81.785 155.903 81.785H228.742C229.801 81.785 230.659 80.9268 230.659 79.8682V77.3124C230.659 76.2537 229.801 75.3955 228.742 75.3955Z" fill="#E7EBEF" fill-opacity="0.5"/>
<g filter="url(#filter1_ddddd_1_877)">
<path d="M139.29 151.408H118.844C116.021 151.408 113.732 153.696 113.732 156.519V176.965C113.732 179.788 116.021 182.077 118.844 182.077H139.29C142.113 182.077 144.402 179.788 144.402 176.965V156.519C144.402 153.696 142.113 151.408 139.29 151.408Z" fill="white"/>
</g>
<path fill-rule="evenodd" clip-rule="evenodd" d="M128.23 164.874C127.123 163.574 126.374 161.982 126.499 160.198C126.86 155.057 134.016 156.188 135.408 158.783C136.8 161.378 136.635 167.959 134.836 168.423C134.118 168.608 132.59 168.154 131.034 167.217L132.011 174.125H126.245L128.23 164.874Z" fill="#EED3BA"/>
<path fill-rule="evenodd" clip-rule="evenodd" d="M135.952 159.948C135.895 159.612 135.756 159.238 135.643 158.92C135.498 158.51 135.278 158.14 135.037 157.791C134.585 157.139 134.045 156.553 133.432 156.05C132.331 155.152 130.929 154.634 129.55 154.802C128.842 154.887 128.169 155.161 127.603 155.595C127.084 155.994 126.584 156.582 125.911 156.624C125.179 156.67 124.507 156.023 123.92 155.625C123.258 155.175 122.554 154.847 121.78 154.719C120.484 154.506 119.267 154.944 118.373 156.007C117.423 157.139 116.731 158.799 117.356 160.298C117.472 160.577 117.621 160.812 117.836 161.007C118.032 161.185 118.332 161.375 118.412 161.661C118.496 161.964 118.243 162.355 118.145 162.629C118.005 163.021 117.89 163.433 117.931 163.859C117.998 164.559 118.438 165.227 118.903 165.687C119.375 166.155 119.957 166.424 120.579 166.547C120.993 166.631 121.418 166.676 121.839 166.645C122.048 166.629 122.233 166.571 122.436 166.525C122.633 166.48 122.743 166.533 122.911 166.641C123.688 167.143 124.524 167.338 125.421 167.263C126.179 167.2 127.052 167.016 127.67 166.497C128.356 165.921 128.343 165.126 128.181 164.277C128.353 164.361 128.825 164.414 128.543 164.076C128.431 163.942 128.219 163.888 128.075 163.809C127.9 163.717 127.742 163.595 127.608 163.449C127.083 162.845 127.613 161.616 128.273 161.414C129.253 161.113 129.473 162.499 130.172 162.858C130.575 163.064 130.995 162.782 131.297 162.495C131.701 162.109 131.976 161.598 132.214 161.079C132.409 160.651 132.591 160.217 132.791 159.791C132.884 159.592 133.207 159.03 133.044 158.805C133.747 158.665 134.529 158.957 135.133 159.34C135.383 159.498 135.574 159.672 135.707 159.951C135.736 160.011 135.798 160.189 135.876 160.196C136.021 160.21 135.967 160.032 135.952 159.948Z" fill="#394856"/>
<path d="M141.017 182.077C140.248 182.077 135.017 177.399 134.157 174.125L133.925 182.077H141.017Z" fill="#CFD7DE"/>
<path d="M126.463 173.324C124.879 173.848 120.572 179.636 121.511 182.077H137.98C134.479 178.392 134.047 175.513 134.162 174.13L126.463 173.324Z" fill="#E7EBEF"/>
<path d="M130.151 163.002C130.151 164.146 129.298 165.073 128.245 165.073C127.192 165.073 126.339 164.146 126.339 163.002C126.339 161.858 127.192 160.931 128.245 160.931C129.298 160.931 130.151 161.858 130.151 163.002Z" fill="#1F9073"/>
<path d="M129.738 163.002C129.738 164.146 128.885 165.073 127.833 165.073C126.78 165.073 125.927 164.146 125.927 163.002C125.927 161.858 126.78 160.931 127.833 160.931C128.885 160.931 129.738 161.858 129.738 163.002Z" fill="#24BC94"/>
<path fill-rule="evenodd" clip-rule="evenodd" d="M133.479 156.089C133.303 155.961 133.064 155.904 132.81 155.919C131.351 156.008 130.204 157.045 129.401 158.424C128.601 159.799 128.19 161.437 128.174 162.558L127.482 162.548C127.501 161.302 127.946 159.549 128.804 158.076C129.66 156.607 130.976 155.338 132.768 155.229C133.143 155.207 133.55 155.287 133.885 155.53C134.03 155.636 134.203 155.79 134.294 155.989C134.341 156.095 134.37 156.223 134.348 156.363C134.324 156.501 134.259 156.628 134.161 156.727L133.666 156.254L133.665 156.255C133.664 156.263 133.664 156.271 133.666 156.278L133.664 156.275C133.65 156.247 133.631 156.222 133.609 156.2C133.569 156.159 133.526 156.122 133.479 156.089ZM132.347 166.144L128.807 164.113L129.147 163.554L132.688 165.586L132.347 166.144Z" fill="#24BC94"/>
<path d="M133.084 165.932C133.084 166.059 133.034 166.18 132.944 166.27C132.855 166.359 132.733 166.409 132.607 166.409C132.48 166.409 132.359 166.359 132.269 166.27C132.18 166.18 132.129 166.059 132.129 165.932C132.129 165.806 132.18 165.684 132.269 165.595C132.359 165.505 132.48 165.455 132.607 165.455C132.733 165.455 132.855 165.505 132.944 165.595C133.034 165.684 133.084 165.806 133.084 165.932Z" fill="#1F9073"/>
<path d="M143.124 156.589C144.888 156.589 146.318 155.159 146.318 153.394C146.318 151.63 144.888 150.199 143.124 150.199C141.359 150.199 139.929 151.63 139.929 153.394C139.929 155.159 141.359 156.589 143.124 156.589Z" fill="#24BC94"/>
<path d="M156.807 164.848C158.789 164.848 159.936 163.619 159.936 161.585C159.936 159.562 158.789 158.342 156.873 158.342H154.701V164.848H156.807ZM155.682 163.99V159.2H156.813C158.236 159.2 158.97 160.051 158.97 161.585C158.97 163.126 158.236 163.99 156.752 163.99H155.682ZM162.5 164.956C163.307 164.956 163.761 164.546 163.942 164.181H163.98V164.848H164.908V161.608C164.908 160.188 163.79 159.905 163.015 159.905C162.131 159.905 161.318 160.261 161.001 161.15L161.893 161.353C162.033 161.007 162.389 160.674 163.027 160.674C163.64 160.674 163.955 160.994 163.955 161.548V161.569C163.955 161.916 163.599 161.909 162.722 162.011C161.798 162.119 160.851 162.36 160.851 163.469C160.851 164.429 161.572 164.956 162.5 164.956ZM162.706 164.194C162.169 164.194 161.782 163.952 161.782 163.482C161.782 162.974 162.233 162.792 162.783 162.72C163.091 162.678 163.821 162.596 163.958 162.459V163.088C163.958 163.666 163.497 164.194 162.706 164.194ZM168.45 159.969H167.45V158.8H166.5V159.969H165.785V160.731H166.5V163.612C166.497 164.498 167.174 164.927 167.923 164.911C168.225 164.908 168.428 164.851 168.539 164.81L168.368 164.025C168.304 164.038 168.186 164.066 168.034 164.066C167.726 164.066 167.45 163.965 167.45 163.415V160.731H168.45V159.969ZM170.921 164.956C171.728 164.956 172.182 164.546 172.363 164.181H172.401V164.848H173.329V161.608C173.329 160.188 172.21 159.905 171.435 159.905C170.552 159.905 169.739 160.261 169.421 161.15L170.314 161.353C170.454 161.007 170.81 160.674 171.448 160.674C172.062 160.674 172.376 160.994 172.376 161.548V161.569C172.376 161.916 172.02 161.909 171.143 162.011C170.219 162.119 169.273 162.36 169.273 163.469C169.273 164.429 169.993 164.956 170.921 164.956ZM171.127 164.194C170.591 164.194 170.203 163.952 170.203 163.482C170.203 162.974 170.654 162.792 171.203 162.72C171.512 162.678 172.242 162.596 172.379 162.459V163.088C172.379 163.666 171.918 164.194 171.127 164.194ZM177.038 164.848H178.019V162.56H179.353C180.862 162.56 181.609 161.649 181.609 160.448C181.609 159.251 180.868 158.342 179.356 158.342H177.038V164.848ZM178.019 161.729V159.184H179.252C180.223 159.184 180.621 159.711 180.621 160.448C180.621 161.185 180.223 161.729 179.264 161.729H178.019ZM182.683 164.848H183.633V161.868C183.633 161.23 184.125 160.769 184.798 160.769C184.996 160.769 185.218 160.804 185.294 160.826V159.918C185.16 159.903 185.026 159.896 184.891 159.895C184.319 159.895 183.83 160.219 183.652 160.744H183.601V159.969H182.683V164.848ZM187.997 164.946C189.372 164.946 190.271 163.939 190.271 162.431C190.271 160.912 189.372 159.905 187.997 159.905C186.621 159.905 185.722 160.912 185.722 162.431C185.722 163.939 186.621 164.946 187.997 164.946ZM188 164.149C187.101 164.149 186.681 163.364 186.681 162.428C186.681 161.493 187.101 160.699 188 160.699C188.893 160.699 189.312 161.493 189.312 162.428C189.312 163.364 188.893 164.149 188 164.149ZM195.331 159.969H194.311L193.078 163.723H193.027L191.792 159.969H190.772L192.545 164.848H193.561L195.331 159.969ZM196.223 164.848H197.173V159.969H196.223V164.848ZM196.703 159.216C197.03 159.216 197.303 158.962 197.303 158.65C197.303 158.339 197.03 158.082 196.703 158.082C196.372 158.082 196.103 158.339 196.103 158.65C196.103 158.962 196.372 159.216 196.703 159.216ZM200.277 164.943C201.167 164.943 201.516 164.4 201.688 164.089H201.767V164.848H202.695V158.342H201.745V160.76H201.688C201.516 160.458 201.192 159.905 200.284 159.905C199.105 159.905 198.238 160.836 198.238 162.418C198.238 163.997 199.092 164.943 200.277 164.943ZM200.487 164.133C199.638 164.133 199.197 163.387 199.197 162.408C199.197 161.439 199.63 160.712 200.487 160.712C201.316 160.712 201.76 161.389 201.76 162.408C201.76 163.435 201.307 164.133 200.487 164.133ZM206.153 164.946C207.217 164.946 207.97 164.422 208.186 163.628L207.287 163.466C207.115 163.927 206.703 164.162 206.163 164.162C205.349 164.162 204.803 163.635 204.777 162.694H208.246V162.357C208.246 160.594 207.192 159.905 206.087 159.905C204.727 159.905 203.831 160.941 203.831 162.44C203.831 163.955 204.714 164.946 206.153 164.946ZM204.781 161.983C204.819 161.29 205.321 160.69 206.092 160.69C206.83 160.69 207.313 161.236 207.316 161.983H204.781ZM209.301 164.848H210.25V161.868C210.25 161.23 210.743 160.769 211.416 160.769C211.613 160.769 211.835 160.804 211.911 160.826V159.918C211.777 159.903 211.643 159.896 211.508 159.895C210.936 159.895 210.447 160.219 210.269 160.744H210.218V159.969H209.301V164.848Z" fill="#394856"/>
<path d="M228.742 171.237H155.903C154.844 171.237 153.986 172.096 153.986 173.154V175.71C153.986 176.769 154.844 177.627 155.903 177.627H228.742C229.801 177.627 230.659 176.769 230.659 175.71V173.154C230.659 172.096 229.801 171.237 228.742 171.237Z" fill="#E7EBEF" fill-opacity="0.5"/>
<path d="M245.503 96.3644L247.863 100.316V102.87H248.842V100.316L251.202 96.3644H250.087L248.387 99.3221H248.317L246.618 96.3644H245.503ZM253.312 102.969C254.688 102.969 255.587 101.962 255.587 100.453C255.587 98.9343 254.688 97.9273 253.312 97.9273C251.937 97.9273 251.038 98.9343 251.038 100.453C251.038 101.962 251.937 102.969 253.312 102.969ZM253.316 102.171C252.417 102.171 251.997 101.387 251.997 100.45C251.997 99.5157 252.417 98.7215 253.316 98.7215C254.208 98.7215 254.627 99.5157 254.627 100.45C254.627 101.387 254.208 102.171 253.316 102.171ZM259.738 100.847C259.741 101.676 259.125 102.07 258.591 102.07C258.004 102.07 257.597 101.644 257.597 100.98V97.9912H256.647V101.095C256.647 102.305 257.311 102.933 258.248 102.933C258.982 102.933 259.481 102.546 259.706 102.025H259.757V102.87H260.691V97.9912H259.738V100.847Z" fill="#394856"/>
<path d="M259.412 109.26H186.572C185.513 109.26 184.655 110.118 184.655 111.176V113.732C184.655 114.791 185.513 115.649 186.572 115.649H259.412C260.47 115.649 261.329 114.791 261.329 113.732V111.176C261.329 110.118 260.47 109.26 259.412 109.26Z" fill="#E7EBEF" fill-opacity="0.5"/>
<path d="M259.412 120.761H222.353C221.294 120.761 220.436 121.619 220.436 122.677V125.233C220.436 126.292 221.294 127.15 222.353 127.15H259.412C260.47 127.15 261.329 126.292 261.329 125.233V122.677C261.329 121.619 260.47 120.761 259.412 120.761Z" fill="#E7EBEF" fill-opacity="0.5"/>
<g filter="url(#filter2_dddd_1_877)">
<path d="M294.554 96.4807H274.108C271.284 96.4807 268.996 98.7693 268.996 101.592V122.039C268.996 124.862 271.284 127.15 274.108 127.15H294.554C297.377 127.15 299.665 124.862 299.665 122.039V101.592C299.665 98.7693 297.377 96.4807 294.554 96.4807Z" fill="white"/>
</g>
<mask id="mask1_1_877" style="mask-type:luminance" maskUnits="userSpaceOnUse" x="268" y="84" width="32" height="44">
<path d="M268.996 84.9797H299.665V122.039C299.665 123.394 299.127 124.694 298.168 125.653C297.21 126.612 295.909 127.15 294.554 127.15H274.108C272.752 127.15 271.452 126.612 270.493 125.653C269.534 124.694 268.996 123.394 268.996 122.039V84.9797Z" fill="#C4C4C4"/>
</mask>
<g mask="url(#mask1_1_877)">
<path fill-rule="evenodd" clip-rule="evenodd" d="M286.753 111.033C288.005 109.564 288.853 107.762 288.711 105.744C288.303 99.9278 280.207 101.207 278.632 104.142C277.058 107.078 277.245 114.524 279.28 115.048C280.091 115.257 281.821 114.745 283.581 113.684L282.476 121.499H288.998L286.753 111.033Z" fill="#EED3BA"/>
<path fill-rule="evenodd" clip-rule="evenodd" d="M281.764 104.492C282.649 104.987 283.279 105.915 284.037 107.132C284.388 106.994 284.775 106.982 285.133 107.098C285.491 107.213 285.798 107.448 286.003 107.764C286.207 108.08 286.296 108.457 286.254 108.831C286.212 109.205 286.042 109.553 285.773 109.816C286.177 110.388 286.606 110.943 287.058 111.479C288.866 110.394 289.916 107.78 288.652 104.147C287.862 97.197 278.581 101.861 276.962 100.83C276.608 103.049 277.75 104.837 281.764 104.492Z" fill="#394856"/>
<path d="M282.047 127.898V118.573C278.717 120.203 275.001 126.032 275.031 127.898H282.047Z" fill="url(#paint0_linear_1_877)"/>
<path d="M281.092 118.25L285.73 117.374V127.898H279.767C279.767 127.898 280.474 121.738 280.563 118.878C280.573 118.571 280.791 118.307 281.092 118.25Z" fill="#24BC94"/>
<path d="M288.769 117.023H285.931C285.661 117.023 285.42 117.191 285.334 117.447C284.213 120.795 283.099 126.534 282.924 127.898H295.528C295.99 127.073 289.865 117.023 288.769 117.023Z" fill="url(#paint1_linear_1_877)"/>
</g>
<g filter="url(#filter3_dddd_1_877)">
<path d="M246.633 185.933H159.736C156.913 185.933 154.625 188.222 154.625 191.045V206.379C154.625 209.202 156.913 211.491 159.736 211.491H246.633C249.456 211.491 251.744 209.202 251.744 206.379V191.045C251.744 188.222 249.456 185.933 246.633 185.933Z" fill="white"/>
</g>
<path d="M239.604 196.156H182.099C181.041 196.156 180.183 197.014 180.183 198.073V200.629C180.183 201.687 181.041 202.546 182.099 202.546H239.604C240.663 202.546 241.521 201.687 241.521 200.629V198.073C241.521 197.014 240.663 196.156 239.604 196.156Z" fill="#E7EBEF" fill-opacity="0.5"/>
<g filter="url(#filter4_dddd_1_877)">
<path d="M161.014 191.684C161.014 191.345 161.149 191.02 161.388 190.78C161.628 190.54 161.953 190.406 162.292 190.406H169.32L173.154 194.239V205.74C173.154 206.079 173.02 206.404 172.78 206.644C172.54 206.884 172.215 207.018 171.876 207.018H162.292C161.953 207.018 161.628 206.884 161.388 206.644C161.149 206.404 161.014 206.079 161.014 205.74V191.684Z" fill="#1371C3"/>
<path d="M169.32 193.6V190.406L173.154 194.239H169.959C169.79 194.239 169.627 194.172 169.508 194.052C169.388 193.932 169.32 193.77 169.32 193.6Z" fill="#EBF5FF"/>
<path d="M173.154 194.239V197.434L169.959 194.239H173.154Z" fill="#00598F"/>
<path d="M169.32 198.073H164.848C164.495 198.073 164.209 198.359 164.209 198.712V201.907C164.209 202.26 164.495 202.546 164.848 202.546H169.32C169.673 202.546 169.959 202.26 169.959 201.907V198.712C169.959 198.359 169.673 198.073 169.32 198.073Z" fill="white"/>
<path d="M165.487 199.351H168.682V199.99H165.487V199.351ZM165.487 200.629H168.682V201.268H165.487V200.629Z" fill="#24BC94"/>
</g>
<path fill-rule="evenodd" clip-rule="evenodd" d="M18.5294 206.443C18.4955 206.443 18.463 206.457 18.4391 206.481C18.4151 206.505 18.4016 206.537 18.4016 206.571V207.21H17.3793V206.571C17.3793 206.266 17.5005 205.973 17.7162 205.758C17.9319 205.542 18.2244 205.421 18.5294 205.421H19.8073C20.1123 205.421 20.4049 205.542 20.6206 205.758C20.8362 205.973 20.9574 206.266 20.9574 206.571V207.21H19.9351V206.571C19.9351 206.537 19.9216 206.505 19.8977 206.481C19.8737 206.457 19.8412 206.443 19.8073 206.443H18.5294ZM17.2515 207.21C17.0821 207.21 16.9195 207.277 16.7997 207.397C16.6799 207.517 16.6126 207.679 16.6126 207.849V211.683C16.6126 211.852 16.6799 212.015 16.7997 212.134C16.9195 212.254 17.0821 212.321 17.2515 212.321H21.0852C21.2547 212.321 21.4172 212.254 21.537 212.134C21.6568 212.015 21.7241 211.852 21.7241 211.683V207.849C21.7241 207.679 21.6568 207.517 21.537 207.397C21.4172 207.277 21.2547 207.21 21.0852 207.21H17.2515ZM19.8073 209.553C19.8073 209.661 19.7799 209.767 19.7277 209.862C19.6756 209.956 19.6003 210.036 19.5089 210.093V211.044H18.8278V210.093C18.7338 210.034 18.6568 209.952 18.6046 209.854C18.5523 209.755 18.5265 209.645 18.5297 209.534C18.5329 209.423 18.565 209.315 18.6229 209.22C18.6808 209.125 18.7624 209.047 18.8596 208.993C18.9569 208.94 19.0665 208.912 19.1776 208.914C19.2887 208.916 19.3975 208.946 19.4932 209.003C19.5889 209.059 19.6682 209.14 19.7233 209.236C19.7784 209.333 19.8073 209.442 19.8073 209.553Z" fill="#24BC94"/>
</g>
<defs>
<filter id="filter0_ddddd_1_877" x="98.3976" y="49.1764" width="61.3387" height="63.8945" filterUnits="userSpaceOnUse" color-interpolation-filters="sRGB">
<feFlood flood-opacity="0" result="BackgroundImageFix"/>
<feColorMatrix in="SourceAlpha" type="matrix" values="0 0 0 0 0 0 0 0 0 0 0 0 0 0 0 0 0 0 127 0" result="hardAlpha"/>
<feOffset dy="0.638945"/>
<feGaussianBlur stdDeviation="0.319473"/>
<feColorMatrix type="matrix" values="0 0 0 0 0.0781697 0 0 0 0 0.0918845 0 0 0 0 0.112457 0 0 0 0.01 0"/>
<feBlend mode="normal" in2="BackgroundImageFix" result="effect1_dropShadow_1_877"/>
<feColorMatrix in="SourceAlpha" type="matrix" values="0 0 0 0 0 0 0 0 0 0 0 0 0 0 0 0 0 0 127 0" result="hardAlpha"/>
<feOffset dy="1.91684"/>
<feGaussianBlur stdDeviation="1.59736"/>
<feColorMatrix type="matrix" values="0 0 0 0 0.0784314 0 0 0 0 0.0901961 0 0 0 0 0.113725 0 0 0 0.02 0"/>
<feBlend mode="normal" in2="effect1_dropShadow_1_877" result="effect2_dropShadow_1_877"/>
<feColorMatrix in="SourceAlpha" type="matrix" values="0 0 0 0 0 0 0 0 0 0 0 0 0 0 0 0 0 0 127 0" result="hardAlpha"/>
<feOffset dy="4.47262"/>
<feGaussianBlur stdDeviation="3.19473"/>
<feColorMatrix type="matrix" values="0 0 0 0 0.0784314 0 0 0 0 0.0901961 0 0 0 0 0.113725 0 0 0 0.03 0"/>
<feBlend mode="normal" in2="effect2_dropShadow_1_877" result="effect3_dropShadow_1_877"/>
<feColorMatrix in="SourceAlpha" type="matrix" values="0 0 0 0 0 0 0 0 0 0 0 0 0 0 0 0 0 0 127 0" result="hardAlpha"/>
<feOffset dy="11.501"/>
<feGaussianBlur stdDeviation="7.66734"/>
<feColorMatrix type="matrix" values="0 0 0 0 0.0784314 0 0 0 0 0.0901961 0 0 0 0 0.113725 0 0 0 0.03 0"/>
<feBlend mode="normal" in2="effect3_dropShadow_1_877" result="effect4_dropShadow_1_877"/>
<feColorMatrix in="SourceAlpha" type="matrix" values="0 0 0 0 0 0 0 0 0 0 0 0 0 0 0 0 0 0 127 0" result="hardAlpha"/>
<feOffset dy="-1.27789"/>
<feGaussianBlur stdDeviation="2.55578"/>
<feColorMatrix type="matrix" values="0 0 0 0 0.0784314 0 0 0 0 0.0901961 0 0 0 0 0.113725 0 0 0 0.03 0"/>
<feBlend mode="normal" in2="effect4_dropShadow_1_877" result="effect5_dropShadow_1_877"/>
<feBlend mode="normal" in="SourceGraphic" in2="effect5_dropShadow_1_877" result="shape"/>
</filter>
<filter id="filter1_ddddd_1_877" x="98.3976" y="145.018" width="61.3387" height="63.8945" filterUnits="userSpaceOnUse" color-interpolation-filters="sRGB">
<feFlood flood-opacity="0" result="BackgroundImageFix"/>
<feColorMatrix in="SourceAlpha" type="matrix" values="0 0 0 0 0 0 0 0 0 0 0 0 0 0 0 0 0 0 127 0" result="hardAlpha"/>
<feOffset dy="0.638945"/>
<feGaussianBlur stdDeviation="0.319473"/>
<feColorMatrix type="matrix" values="0 0 0 0 0.0781697 0 0 0 0 0.0918845 0 0 0 0 0.112457 0 0 0 0.01 0"/>
<feBlend mode="normal" in2="BackgroundImageFix" result="effect1_dropShadow_1_877"/>
<feColorMatrix in="SourceAlpha" type="matrix" values="0 0 0 0 0 0 0 0 0 0 0 0 0 0 0 0 0 0 127 0" result="hardAlpha"/>
<feOffset dy="1.91684"/>
<feGaussianBlur stdDeviation="1.59736"/>
<feColorMatrix type="matrix" values="0 0 0 0 0.0784314 0 0 0 0 0.0901961 0 0 0 0 0.113725 0 0 0 0.02 0"/>
<feBlend mode="normal" in2="effect1_dropShadow_1_877" result="effect2_dropShadow_1_877"/>
<feColorMatrix in="SourceAlpha" type="matrix" values="0 0 0 0 0 0 0 0 0 0 0 0 0 0 0 0 0 0 127 0" result="hardAlpha"/>
<feOffset dy="4.47262"/>
<feGaussianBlur stdDeviation="3.19473"/>
<feColorMatrix type="matrix" values="0 0 0 0 0.0784314 0 0 0 0 0.0901961 0 0 0 0 0.113725 0 0 0 0.03 0"/>
<feBlend mode="normal" in2="effect2_dropShadow_1_877" result="effect3_dropShadow_1_877"/>
<feColorMatrix in="SourceAlpha" type="matrix" values="0 0 0 0 0 0 0 0 0 0 0 0 0 0 0 0 0 0 127 0" result="hardAlpha"/>
<feOffset dy="11.501"/>
<feGaussianBlur stdDeviation="7.66734"/>
<feColorMatrix type="matrix" values="0 0 0 0 0.0784314 0 0 0 0 0.0901961 0 0 0 0 0.113725 0 0 0 0.03 0"/>
<feBlend mode="normal" in2="effect3_dropShadow_1_877" result="effect4_dropShadow_1_877"/>
<feColorMatrix in="SourceAlpha" type="matrix" values="0 0 0 0 0 0 0 0 0 0 0 0 0 0 0 0 0 0 127 0" result="hardAlpha"/>
<feOffset dy="-1.27789"/>
<feGaussianBlur stdDeviation="2.55578"/>
<feColorMatrix type="matrix" values="0 0 0 0 0.0784314 0 0 0 0 0.0901961 0 0 0 0 0.113725 0 0 0 0.03 0"/>
<feBlend mode="normal" in2="effect4_dropShadow_1_877" result="effect5_dropShadow_1_877"/>
<feBlend mode="normal" in="SourceGraphic" in2="effect5_dropShadow_1_877" result="shape"/>
</filter>
<filter id="filter2_dddd_1_877" x="253.661" y="92.6471" width="61.3387" height="61.3387" filterUnits="userSpaceOnUse" color-interpolation-filters="sRGB">
<feFlood flood-opacity="0" result="BackgroundImageFix"/>
<feColorMatrix in="SourceAlpha" type="matrix" values="0 0 0 0 0 0 0 0 0 0 0 0 0 0 0 0 0 0 127 0" result="hardAlpha"/>
<feOffset dy="0.638945"/>
<feGaussianBlur stdDeviation="0.319473"/>
<feColorMatrix type="matrix" values="0 0 0 0 0.0313726 0 0 0 0 0.0392157 0 0 0 0 0.0509804 0 0 0 0.01 0"/>
<feBlend mode="normal" in2="BackgroundImageFix" result="effect1_dropShadow_1_877"/>
<feColorMatrix in="SourceAlpha" type="matrix" values="0 0 0 0 0 0 0 0 0 0 0 0 0 0 0 0 0 0 127 0" result="hardAlpha"/>
<feOffset dy="1.91684"/>
<feGaussianBlur stdDeviation="1.59736"/>
<feColorMatrix type="matrix" values="0 0 0 0 0.0313726 0 0 0 0 0.0392157 0 0 0 0 0.0509804 0 0 0 0.02 0"/>
<feBlend mode="normal" in2="effect1_dropShadow_1_877" result="effect2_dropShadow_1_877"/>
<feColorMatrix in="SourceAlpha" type="matrix" values="0 0 0 0 0 0 0 0 0 0 0 0 0 0 0 0 0 0 127 0" result="hardAlpha"/>
<feOffset dy="4.47262"/>
<feGaussianBlur stdDeviation="3.19473"/>
<feColorMatrix type="matrix" values="0 0 0 0 0.0313726 0 0 0 0 0.0392157 0 0 0 0 0.0509804 0 0 0 0.03 0"/>
<feBlend mode="normal" in2="effect2_dropShadow_1_877" result="effect3_dropShadow_1_877"/>
<feColorMatrix in="SourceAlpha" type="matrix" values="0 0 0 0 0 0 0 0 0 0 0 0 0 0 0 0 0 0 127 0" result="hardAlpha"/>
<feOffset dy="11.501"/>
<feGaussianBlur stdDeviation="7.66734"/>
<feColorMatrix type="matrix" values="0 0 0 0 0.0313726 0 0 0 0 0.0392157 0 0 0 0 0.0509804 0 0 0 0.03 0"/>
<feBlend mode="normal" in2="effect3_dropShadow_1_877" result="effect4_dropShadow_1_877"/>
<feBlend mode="normal" in="SourceGraphic" in2="effect4_dropShadow_1_877" result="shape"/>
</filter>
<filter id="filter3_dddd_1_877" x="52.3935" y="114.371" width="301.582" height="230.02" filterUnits="userSpaceOnUse" color-interpolation-filters="sRGB">
<feFlood flood-opacity="0" result="BackgroundImageFix"/>
<feColorMatrix in="SourceAlpha" type="matrix" values="0 0 0 0 0 0 0 0 0 0 0 0 0 0 0 0 0 0 127 0" result="hardAlpha"/>
<feOffset dy="2.55578"/>
<feGaussianBlur stdDeviation="3.19473"/>
<feColorMatrix type="matrix" values="0 0 0 0 0.0313726 0 0 0 0 0.0392157 0 0 0 0 0.0509804 0 0 0 0.01 0"/>
<feBlend mode="normal" in2="BackgroundImageFix" result="effect1_dropShadow_1_877"/>
<feColorMatrix in="SourceAlpha" type="matrix" values="0 0 0 0 0 0 0 0 0 0 0 0 0 0 0 0 0 0 127 0" result="hardAlpha"/>
<feOffset dy="7.66734"/>
<feGaussianBlur stdDeviation="7.66734"/>
<feColorMatrix type="matrix" values="0 0 0 0 0.0304 0 0 0 0 0.04064 0 0 0 0 0.0496 0 0 0 0.02 0"/>
<feBlend mode="normal" in2="effect1_dropShadow_1_877" result="effect2_dropShadow_1_877"/>
<feColorMatrix in="SourceAlpha" type="matrix" values="0 0 0 0 0 0 0 0 0 0 0 0 0 0 0 0 0 0 127 0" result="hardAlpha"/>
<feOffset dy="15.3347"/>
<feGaussianBlur stdDeviation="20.4462"/>
<feColorMatrix type="matrix" values="0 0 0 0 0.0313726 0 0 0 0 0.0392157 0 0 0 0 0.0509804 0 0 0 0.03 0"/>
<feBlend mode="normal" in2="effect2_dropShadow_1_877" result="effect3_dropShadow_1_877"/>
<feColorMatrix in="SourceAlpha" type="matrix" values="0 0 0 0 0 0 0 0 0 0 0 0 0 0 0 0 0 0 127 0" result="hardAlpha"/>
<feOffset dy="30.6694"/>
<feGaussianBlur stdDeviation="51.1156"/>
<feColorMatrix type="matrix" values="0 0 0 0 0.0313726 0 0 0 0 0.0392157 0 0 0 0 0.0509804 0 0 0 0.04 0"/>
<feBlend mode="normal" in2="effect3_dropShadow_1_877" result="effect4_dropShadow_1_877"/>
<feBlend mode="normal" in="SourceGraphic" in2="effect4_dropShadow_1_877" result="shape"/>
</filter>
<filter id="filter4_dddd_1_877" x="145.68" y="186.572" width="42.8093" height="47.2819" filterUnits="userSpaceOnUse" color-interpolation-filters="sRGB">
<feFlood flood-opacity="0" result="BackgroundImageFix"/>
<feColorMatrix in="SourceAlpha" type="matrix" values="0 0 0 0 0 0 0 0 0 0 0 0 0 0 0 0 0 0 127 0" result="hardAlpha"/>
<feOffset dy="0.638945"/>
<feGaussianBlur stdDeviation="0.319473"/>
<feColorMatrix type="matrix" values="0 0 0 0 0.0313726 0 0 0 0 0.0392157 0 0 0 0 0.0509804 0 0 0 0.01 0"/>
<feBlend mode="normal" in2="BackgroundImageFix" result="effect1_dropShadow_1_877"/>
<feColorMatrix in="SourceAlpha" type="matrix" values="0 0 0 0 0 0 0 0 0 0 0 0 0 0 0 0 0 0 127 0" result="hardAlpha"/>
<feOffset dy="1.91684"/>
<feGaussianBlur stdDeviation="1.59736"/>
<feColorMatrix type="matrix" values="0 0 0 0 0.0313726 0 0 0 0 0.0392157 0 0 0 0 0.0509804 0 0 0 0.02 0"/>
<feBlend mode="normal" in2="effect1_dropShadow_1_877" result="effect2_dropShadow_1_877"/>
<feColorMatrix in="SourceAlpha" type="matrix" values="0 0 0 0 0 0 0 0 0 0 0 0 0 0 0 0 0 0 127 0" result="hardAlpha"/>
<feOffset dy="4.47262"/>
<feGaussianBlur stdDeviation="3.19473"/>
<feColorMatrix type="matrix" values="0 0 0 0 0.0313726 0 0 0 0 0.0392157 0 0 0 0 0.0509804 0 0 0 0.03 0"/>
<feBlend mode="normal" in2="effect2_dropShadow_1_877" result="effect3_dropShadow_1_877"/>
<feColorMatrix in="SourceAlpha" type="matrix" values="0 0 0 0 0 0 0 0 0 0 0 0 0 0 0 0 0 0 127 0" result="hardAlpha"/>
<feOffset dy="11.501"/>
<feGaussianBlur stdDeviation="7.66734"/>
<feColorMatrix type="matrix" values="0 0 0 0 0.0313726 0 0 0 0 0.0392157 0 0 0 0 0.0509804 0 0 0 0.03 0"/>
<feBlend mode="normal" in2="effect3_dropShadow_1_877" result="effect4_dropShadow_1_877"/>
<feBlend mode="normal" in="SourceGraphic" in2="effect4_dropShadow_1_877" result="shape"/>
</filter>
<linearGradient id="paint0_linear_1_877" x1="276.449" y1="128.759" x2="284.163" y2="122.596" gradientUnits="userSpaceOnUse">
<stop stop-color="#1371C3"/>
<stop offset="1" stop-color="#218BE8"/>
</linearGradient>
<linearGradient id="paint1_linear_1_877" x1="285.476" y1="128.901" x2="294.501" y2="117.774" gradientUnits="userSpaceOnUse">
<stop stop-color="#1371C3"/>
<stop offset="1" stop-color="#218BE8"/>
</linearGradient>
<clipPath id="clip0_1_877">
<rect width="315" height="224.909" fill="white"/>
</clipPath>
</defs>
</svg>
