<svg width="23" height="12" viewBox="0 0 23 12" fill="none" xmlns="http://www.w3.org/2000/svg">
<g id="Group 53">
<path id="Ellipse 21" d="M2.43244 6.23582C2.35041 6.15253 2.27422 6.07369 2.20409 6C2.27422 5.92631 2.35041 5.84747 2.43244 5.76418C2.96109 5.22739 3.72639 4.5115 4.66971 3.79725C6.57959 2.35116 9.10266 1 11.807 1C14.5114 1 17.0345 2.35116 18.9443 3.79725C19.8877 4.5115 20.653 5.22739 21.1816 5.76418C21.2636 5.84747 21.3398 5.92631 21.41 6C21.3398 6.07369 21.2636 6.15253 21.1816 6.23582C20.653 6.77261 19.8877 7.4885 18.9443 8.20275C17.0345 9.64884 14.5114 11 11.807 11C9.10266 11 6.57959 9.64884 4.66971 8.20275C3.72639 7.4885 2.96109 6.77261 2.43244 6.23582Z" stroke="#4280EF" stroke-width="2"/>
<path id="Ellipse 22" d="M15.3684 6C15.3684 7.34449 13.9661 8.75 11.807 8.75C9.64797 8.75 8.24561 7.34449 8.24561 6C8.24561 4.65551 9.64797 3.25 11.807 3.25C13.9661 3.25 15.3684 4.65551 15.3684 6Z" stroke="#4280EF" stroke-width="2"/>
</g>
</svg>
