<svg width="23" height="18" viewBox="0 0 23 18" fill="none" xmlns="http://www.w3.org/2000/svg">
<path d="M2.43244 9.23582C2.35041 9.15253 2.27422 9.07369 2.20409 9C2.27422 8.92631 2.35041 8.84747 2.43244 8.76418C2.96109 8.22739 3.72639 7.5115 4.66971 6.79725C6.57959 5.35116 9.10266 4 11.807 4C14.5114 4 17.0345 5.35116 18.9443 6.79725C19.8877 7.5115 20.653 8.22739 21.1816 8.76418C21.2636 8.84747 21.3398 8.92631 21.41 9C21.3398 9.07369 21.2636 9.15253 21.1816 9.23582C20.653 9.77261 19.8877 10.4885 18.9443 11.2027C17.0345 12.6488 14.5114 14 11.807 14C9.10266 14 6.57959 12.6488 4.66971 11.2027C3.72639 10.4885 2.96109 9.77261 2.43244 9.23582Z" stroke="#4280EF" stroke-width="2"/>
<path d="M15.3684 9C15.3684 10.3445 13.9661 11.75 11.807 11.75C9.64797 11.75 8.24561 10.3445 8.24561 9C8.24561 7.65551 9.64797 6.25 11.807 6.25C13.9661 6.25 15.3684 7.65551 15.3684 9Z" stroke="#4280EF" stroke-width="2"/>
<path d="M3.29239 2L20.3216 16" stroke="#4280EF" stroke-width="2" stroke-linecap="round"/>
</svg>
